<svg width="1848" height="924" viewBox="0 0 1848 924" fill="none" xmlns="http://www.w3.org/2000/svg">
<path d="M0 0H1848V924H0V0Z" fill="#E9F2FF"/>
<rect width="1491" height="726" transform="translate(179 99)" fill="white"/>
<path d="M179 99H1670" stroke="#A2C6FB" stroke-width="10"/>
<path d="M184 825L184 99" stroke="#A2C6FB" stroke-width="10"/>
<path d="M1665 825V99" stroke="#A2C6FB" stroke-width="10"/>
<line x1="84" y1="823" x2="1779" y2="823" stroke="#A2C6FB" stroke-width="4"/>
<circle cx="363" cy="141" r="58.5" fill="#A2C6FB" stroke="#A2C6FB"/>
<circle cx="1496" cy="766" r="58.5" fill="#A2C6FB" stroke="#A2C6FB"/>
<path d="M1449.04 659.5C1449.16 659.5 1449.25 659.547 1449.32 659.64C1449.41 659.71 1449.46 659.803 1449.46 659.92V663.35C1449.46 663.467 1449.41 663.572 1449.32 663.665C1449.25 663.735 1449.16 663.77 1449.04 663.77H1442.78C1442.66 663.77 1442.6 663.828 1442.6 663.945V683.58C1442.6 683.697 1442.55 683.802 1442.46 683.895C1442.39 683.965 1442.3 684 1442.18 684H1438.09C1437.97 684 1437.86 683.965 1437.77 683.895C1437.7 683.802 1437.67 683.697 1437.67 683.58V663.945C1437.67 663.828 1437.61 663.77 1437.49 663.77H1431.4C1431.28 663.77 1431.18 663.735 1431.09 663.665C1431.02 663.572 1430.98 663.467 1430.98 663.35V659.92C1430.98 659.803 1431.02 659.71 1431.09 659.64C1431.18 659.547 1431.28 659.5 1431.4 659.5H1449.04ZM1457.3 684.28C1455.34 684.28 1453.66 683.767 1452.26 682.74C1450.86 681.713 1449.9 680.313 1449.39 678.54C1449.06 677.443 1448.9 676.253 1448.9 674.97C1448.9 673.593 1449.06 672.357 1449.39 671.26C1449.93 669.533 1450.89 668.18 1452.29 667.2C1453.69 666.22 1455.37 665.73 1457.33 665.73C1459.25 665.73 1460.88 666.22 1462.23 667.2C1463.59 668.157 1464.54 669.498 1465.1 671.225C1465.48 672.392 1465.66 673.617 1465.66 674.9C1465.66 676.16 1465.5 677.338 1465.17 678.435C1464.66 680.255 1463.7 681.69 1462.3 682.74C1460.93 683.767 1459.26 684.28 1457.3 684.28ZM1457.3 680.045C1458.07 680.045 1458.72 679.812 1459.26 679.345C1459.8 678.878 1460.18 678.237 1460.41 677.42C1460.6 676.673 1460.69 675.857 1460.69 674.97C1460.69 673.99 1460.6 673.162 1460.41 672.485C1460.16 671.692 1459.76 671.073 1459.22 670.63C1458.69 670.187 1458.03 669.965 1457.26 669.965C1456.47 669.965 1455.81 670.187 1455.27 670.63C1454.76 671.073 1454.38 671.692 1454.15 672.485C1453.96 673.045 1453.87 673.873 1453.87 674.97C1453.87 676.02 1453.95 676.837 1454.11 677.42C1454.35 678.237 1454.73 678.878 1455.27 679.345C1455.83 679.812 1456.51 680.045 1457.3 680.045ZM1477.8 665.765C1478.64 665.765 1479.3 665.928 1479.79 666.255C1479.98 666.348 1480.05 666.523 1480 666.78L1479.27 670.77C1479.24 671.05 1479.08 671.132 1478.78 671.015C1478.43 670.898 1478.02 670.84 1477.55 670.84C1477.36 670.84 1477.11 670.863 1476.78 670.91C1475.94 670.98 1475.23 671.295 1474.65 671.855C1474.06 672.392 1473.77 673.115 1473.77 674.025V683.58C1473.77 683.697 1473.72 683.802 1473.63 683.895C1473.56 683.965 1473.47 684 1473.35 684H1469.26C1469.14 684 1469.03 683.965 1468.94 683.895C1468.87 683.802 1468.84 683.697 1468.84 683.58V666.43C1468.84 666.313 1468.87 666.22 1468.94 666.15C1469.03 666.057 1469.14 666.01 1469.26 666.01H1473.35C1473.47 666.01 1473.56 666.057 1473.63 666.15C1473.72 666.22 1473.77 666.313 1473.77 666.43V667.76C1473.77 667.83 1473.79 667.877 1473.84 667.9C1473.89 667.923 1473.92 667.912 1473.95 667.865C1474.9 666.465 1476.19 665.765 1477.8 665.765ZM1488.86 675.775C1488.74 675.775 1488.64 675.74 1488.54 675.67C1488.47 675.577 1488.44 675.472 1488.44 675.355V671.96C1488.44 671.843 1488.47 671.75 1488.54 671.68C1488.64 671.587 1488.74 671.54 1488.86 671.54H1500.3C1500.42 671.54 1500.51 671.587 1500.58 671.68C1500.68 671.75 1500.72 671.843 1500.72 671.96V675.355C1500.72 675.472 1500.68 675.577 1500.58 675.67C1500.51 675.74 1500.42 675.775 1500.3 675.775H1488.86ZM1511.31 684C1511.19 684 1511.08 683.965 1510.99 683.895C1510.92 683.802 1510.89 683.697 1510.89 683.58V659.92C1510.89 659.803 1510.92 659.71 1510.99 659.64C1511.08 659.547 1511.19 659.5 1511.31 659.5H1515.4C1515.52 659.5 1515.61 659.547 1515.68 659.64C1515.77 659.71 1515.82 659.803 1515.82 659.92V683.58C1515.82 683.697 1515.77 683.802 1515.68 683.895C1515.61 683.965 1515.52 684 1515.4 684H1511.31ZM1529.14 665.73C1531.01 665.73 1532.52 666.302 1533.66 667.445C1534.8 668.588 1535.37 670.14 1535.37 672.1V683.58C1535.37 683.697 1535.33 683.802 1535.23 683.895C1535.16 683.965 1535.07 684 1534.95 684H1530.86C1530.74 684 1530.64 683.965 1530.54 683.895C1530.47 683.802 1530.44 683.697 1530.44 683.58V673.115C1530.44 672.182 1530.17 671.423 1529.63 670.84C1529.12 670.257 1528.43 669.965 1527.57 669.965C1526.71 669.965 1526.01 670.257 1525.47 670.84C1524.96 671.423 1524.7 672.182 1524.7 673.115V683.58C1524.7 683.697 1524.65 683.802 1524.56 683.895C1524.49 683.965 1524.4 684 1524.28 684H1520.18C1520.07 684 1519.96 683.965 1519.87 683.895C1519.8 683.802 1519.76 683.697 1519.76 683.58V666.43C1519.76 666.313 1519.8 666.22 1519.87 666.15C1519.96 666.057 1520.07 666.01 1520.18 666.01H1524.28C1524.4 666.01 1524.49 666.057 1524.56 666.15C1524.65 666.22 1524.7 666.313 1524.7 666.43V667.655C1524.7 667.725 1524.72 667.772 1524.77 667.795C1524.82 667.818 1524.85 667.807 1524.87 667.76C1525.83 666.407 1527.25 665.73 1529.14 665.73ZM1549.23 669.545C1549.23 669.662 1549.18 669.767 1549.09 669.86C1549.02 669.93 1548.93 669.965 1548.81 669.965H1545.45C1545.33 669.965 1545.27 670.023 1545.27 670.14V677.56C1545.27 678.33 1545.43 678.902 1545.73 679.275C1546.06 679.648 1546.57 679.835 1547.27 679.835H1548.42C1548.54 679.835 1548.63 679.882 1548.7 679.975C1548.8 680.045 1548.84 680.138 1548.84 680.255V683.58C1548.84 683.837 1548.7 683.988 1548.42 684.035C1547.44 684.082 1546.74 684.105 1546.32 684.105C1544.39 684.105 1542.94 683.79 1541.98 683.16C1541.03 682.507 1540.54 681.293 1540.51 679.52V670.14C1540.51 670.023 1540.46 669.965 1540.34 669.965H1538.34C1538.23 669.965 1538.12 669.93 1538.03 669.86C1537.96 669.767 1537.92 669.662 1537.92 669.545V666.43C1537.92 666.313 1537.96 666.22 1538.03 666.15C1538.12 666.057 1538.23 666.01 1538.34 666.01H1540.34C1540.46 666.01 1540.51 665.952 1540.51 665.835V661.67C1540.51 661.553 1540.55 661.46 1540.62 661.39C1540.71 661.297 1540.82 661.25 1540.93 661.25H1544.85C1544.97 661.25 1545.06 661.297 1545.13 661.39C1545.23 661.46 1545.27 661.553 1545.27 661.67V665.835C1545.27 665.952 1545.33 666.01 1545.45 666.01H1548.81C1548.93 666.01 1549.02 666.057 1549.09 666.15C1549.18 666.22 1549.23 666.313 1549.23 666.43V669.545Z" fill="#3B414E"/>
<circle cx="486" cy="707" r="58.5" fill="#A2C6FB" stroke="#A2C6FB"/>
<path d="M424.555 620C424.438 620 424.333 619.965 424.24 619.895C424.17 619.802 424.135 619.697 424.135 619.58V595.92C424.135 595.803 424.17 595.71 424.24 595.64C424.333 595.547 424.438 595.5 424.555 595.5H428.65C428.767 595.5 428.86 595.547 428.93 595.64C429.023 595.71 429.07 595.803 429.07 595.92V619.58C429.07 619.697 429.023 619.802 428.93 619.895C428.86 619.965 428.767 620 428.65 620H424.555ZM442.394 601.73C444.261 601.73 445.766 602.302 446.909 603.445C448.053 604.588 448.624 606.14 448.624 608.1V619.58C448.624 619.697 448.578 619.802 448.484 619.895C448.414 619.965 448.321 620 448.204 620H444.109C443.993 620 443.888 619.965 443.794 619.895C443.724 619.802 443.689 619.697 443.689 619.58V609.115C443.689 608.182 443.421 607.423 442.884 606.84C442.371 606.257 441.683 605.965 440.819 605.965C439.956 605.965 439.256 606.257 438.719 606.84C438.206 607.423 437.949 608.182 437.949 609.115V619.58C437.949 619.697 437.903 619.802 437.809 619.895C437.739 619.965 437.646 620 437.529 620H433.434C433.318 620 433.213 619.965 433.119 619.895C433.049 619.802 433.014 619.697 433.014 619.58V602.43C433.014 602.313 433.049 602.22 433.119 602.15C433.213 602.057 433.318 602.01 433.434 602.01H437.529C437.646 602.01 437.739 602.057 437.809 602.15C437.903 602.22 437.949 602.313 437.949 602.43V603.655C437.949 603.725 437.973 603.772 438.019 603.795C438.066 603.818 438.101 603.807 438.124 603.76C439.081 602.407 440.504 601.73 442.394 601.73ZM462.48 605.545C462.48 605.662 462.433 605.767 462.34 605.86C462.27 605.93 462.177 605.965 462.06 605.965H458.7C458.583 605.965 458.525 606.023 458.525 606.14V613.56C458.525 614.33 458.677 614.902 458.98 615.275C459.307 615.648 459.82 615.835 460.52 615.835H461.675C461.792 615.835 461.885 615.882 461.955 615.975C462.048 616.045 462.095 616.138 462.095 616.255V619.58C462.095 619.837 461.955 619.988 461.675 620.035C460.695 620.082 459.995 620.105 459.575 620.105C457.638 620.105 456.192 619.79 455.235 619.16C454.278 618.507 453.788 617.293 453.765 615.52V606.14C453.765 606.023 453.707 605.965 453.59 605.965H451.595C451.478 605.965 451.373 605.93 451.28 605.86C451.21 605.767 451.175 605.662 451.175 605.545V602.43C451.175 602.313 451.21 602.22 451.28 602.15C451.373 602.057 451.478 602.01 451.595 602.01H453.59C453.707 602.01 453.765 601.952 453.765 601.835V597.67C453.765 597.553 453.8 597.46 453.87 597.39C453.963 597.297 454.068 597.25 454.185 597.25H458.105C458.222 597.25 458.315 597.297 458.385 597.39C458.478 597.46 458.525 597.553 458.525 597.67V601.835C458.525 601.952 458.583 602.01 458.7 602.01H462.06C462.177 602.01 462.27 602.057 462.34 602.15C462.433 602.22 462.48 602.313 462.48 602.43V605.545ZM472.073 611.775C471.956 611.775 471.851 611.74 471.758 611.67C471.688 611.577 471.653 611.472 471.653 611.355V607.96C471.653 607.843 471.688 607.75 471.758 607.68C471.851 607.587 471.956 607.54 472.073 607.54H483.518C483.634 607.54 483.728 607.587 483.798 607.68C483.891 607.75 483.938 607.843 483.938 607.96V611.355C483.938 611.472 483.891 611.577 483.798 611.67C483.728 611.74 483.634 611.775 483.518 611.775H472.073ZM508.171 595.92C508.171 595.803 508.206 595.71 508.276 595.64C508.369 595.547 508.474 595.5 508.591 595.5H512.686C512.802 595.5 512.896 595.547 512.966 595.64C513.059 595.71 513.106 595.803 513.106 595.92V619.58C513.106 619.697 513.059 619.802 512.966 619.895C512.896 619.965 512.802 620 512.686 620H508.731C508.497 620 508.334 619.907 508.241 619.72L499.176 604.74C499.129 604.67 499.082 604.647 499.036 604.67C498.989 604.67 498.966 604.717 498.966 604.81L499.036 619.58C499.036 619.697 498.989 619.802 498.896 619.895C498.826 619.965 498.732 620 498.616 620H494.521C494.404 620 494.299 619.965 494.206 619.895C494.136 619.802 494.101 619.697 494.101 619.58V595.92C494.101 595.803 494.136 595.71 494.206 595.64C494.299 595.547 494.404 595.5 494.521 595.5H498.476C498.709 595.5 498.872 595.593 498.966 595.78L507.996 610.69C508.042 610.76 508.089 610.795 508.136 610.795C508.182 610.772 508.206 610.713 508.206 610.62L508.171 595.92ZM524.237 601.73C525.754 601.73 527.107 601.998 528.297 602.535C529.487 603.048 530.409 603.76 531.062 604.67C531.739 605.58 532.077 606.595 532.077 607.715V619.58C532.077 619.697 532.031 619.802 531.937 619.895C531.867 619.965 531.774 620 531.657 620H527.562C527.446 620 527.341 619.965 527.247 619.895C527.177 619.802 527.142 619.697 527.142 619.58V618.425C527.142 618.355 527.119 618.308 527.072 618.285C527.026 618.262 526.979 618.285 526.932 618.355C525.952 619.638 524.377 620.28 522.207 620.28C520.387 620.28 518.917 619.837 517.797 618.95C516.677 618.063 516.117 616.757 516.117 615.03C516.117 613.233 516.747 611.845 518.007 610.865C519.267 609.862 521.064 609.36 523.397 609.36H526.967C527.084 609.36 527.142 609.302 527.142 609.185V608.415C527.142 607.645 526.909 607.05 526.442 606.63C525.976 606.187 525.276 605.965 524.342 605.965C523.619 605.965 523.012 606.093 522.522 606.35C522.056 606.607 521.752 606.968 521.612 607.435C521.542 607.692 521.391 607.808 521.157 607.785L516.922 607.225C516.642 607.178 516.514 607.073 516.537 606.91C516.631 605.93 517.016 605.043 517.692 604.25C518.392 603.457 519.302 602.838 520.422 602.395C521.566 601.952 522.837 601.73 524.237 601.73ZM523.537 616.605C524.541 616.605 525.392 616.337 526.092 615.8C526.792 615.263 527.142 614.575 527.142 613.735V612.475C527.142 612.358 527.084 612.3 526.967 612.3H524.447C523.397 612.3 522.569 612.498 521.962 612.895C521.379 613.292 521.087 613.852 521.087 614.575C521.087 615.205 521.309 615.707 521.752 616.08C522.196 616.43 522.791 616.605 523.537 616.605ZM551.618 606.84C552.038 608.03 552.248 609.43 552.248 611.04C552.248 612.65 552.027 614.108 551.583 615.415C551.047 616.908 550.195 618.098 549.028 618.985C547.885 619.848 546.462 620.28 544.758 620.28C543.078 620.28 541.772 619.697 540.838 618.53C540.792 618.46 540.745 618.437 540.698 618.46C540.652 618.483 540.628 618.53 540.628 618.6V626.09C540.628 626.207 540.582 626.3 540.488 626.37C540.418 626.463 540.325 626.51 540.208 626.51H536.113C535.997 626.51 535.892 626.463 535.798 626.37C535.728 626.3 535.693 626.207 535.693 626.09V602.43C535.693 602.313 535.728 602.22 535.798 602.15C535.892 602.057 535.997 602.01 536.113 602.01H540.208C540.325 602.01 540.418 602.057 540.488 602.15C540.582 602.22 540.628 602.313 540.628 602.43V603.585C540.628 603.655 540.652 603.702 540.698 603.725C540.745 603.725 540.792 603.702 540.838 603.655C541.818 602.372 543.172 601.73 544.898 601.73C546.508 601.73 547.897 602.185 549.063 603.095C550.253 603.982 551.105 605.23 551.618 606.84ZM546.263 614.68C546.847 613.77 547.138 612.533 547.138 610.97C547.138 609.5 546.893 608.333 546.403 607.47C545.867 606.467 545.003 605.965 543.813 605.965C542.74 605.965 541.935 606.467 541.398 607.47C540.908 608.31 540.663 609.488 540.663 611.005C540.663 612.568 540.92 613.782 541.433 614.645C541.97 615.578 542.763 616.045 543.813 616.045C544.863 616.045 545.68 615.59 546.263 614.68Z" fill="#3B414E"/>
<circle cx="1174" cy="766" r="58.5" fill="#A2C6FB" stroke="#A2C6FB"/>
<path d="M1099.56 674C1099.44 674 1099.33 673.965 1099.24 673.895C1099.17 673.802 1099.14 673.697 1099.14 673.58V649.92C1099.14 649.803 1099.17 649.71 1099.24 649.64C1099.33 649.547 1099.44 649.5 1099.56 649.5H1103.65C1103.77 649.5 1103.86 649.547 1103.93 649.64C1104.02 649.71 1104.07 649.803 1104.07 649.92V673.58C1104.07 673.697 1104.02 673.802 1103.93 673.895C1103.86 673.965 1103.77 674 1103.65 674H1099.56ZM1117.39 655.73C1119.26 655.73 1120.77 656.302 1121.91 657.445C1123.05 658.588 1123.62 660.14 1123.62 662.1V673.58C1123.62 673.697 1123.58 673.802 1123.48 673.895C1123.41 673.965 1123.32 674 1123.2 674H1119.11C1118.99 674 1118.89 673.965 1118.79 673.895C1118.72 673.802 1118.69 673.697 1118.69 673.58V663.115C1118.69 662.182 1118.42 661.423 1117.88 660.84C1117.37 660.257 1116.68 659.965 1115.82 659.965C1114.96 659.965 1114.26 660.257 1113.72 660.84C1113.21 661.423 1112.95 662.182 1112.95 663.115V673.58C1112.95 673.697 1112.9 673.802 1112.81 673.895C1112.74 673.965 1112.65 674 1112.53 674H1108.43C1108.32 674 1108.21 673.965 1108.12 673.895C1108.05 673.802 1108.01 673.697 1108.01 673.58V656.43C1108.01 656.313 1108.05 656.22 1108.12 656.15C1108.21 656.057 1108.32 656.01 1108.43 656.01H1112.53C1112.65 656.01 1112.74 656.057 1112.81 656.15C1112.9 656.22 1112.95 656.313 1112.95 656.43V657.655C1112.95 657.725 1112.97 657.772 1113.02 657.795C1113.07 657.818 1113.1 657.807 1113.12 657.76C1114.08 656.407 1115.5 655.73 1117.39 655.73ZM1137.48 659.545C1137.48 659.662 1137.43 659.767 1137.34 659.86C1137.27 659.93 1137.18 659.965 1137.06 659.965H1133.7C1133.58 659.965 1133.52 660.023 1133.52 660.14V667.56C1133.52 668.33 1133.68 668.902 1133.98 669.275C1134.31 669.648 1134.82 669.835 1135.52 669.835H1136.67C1136.79 669.835 1136.88 669.882 1136.95 669.975C1137.05 670.045 1137.09 670.138 1137.09 670.255V673.58C1137.09 673.837 1136.95 673.988 1136.67 674.035C1135.69 674.082 1134.99 674.105 1134.57 674.105C1132.64 674.105 1131.19 673.79 1130.23 673.16C1129.28 672.507 1128.79 671.293 1128.76 669.52V660.14C1128.76 660.023 1128.71 659.965 1128.59 659.965H1126.59C1126.48 659.965 1126.37 659.93 1126.28 659.86C1126.21 659.767 1126.17 659.662 1126.17 659.545V656.43C1126.17 656.313 1126.21 656.22 1126.28 656.15C1126.37 656.057 1126.48 656.01 1126.59 656.01H1128.59C1128.71 656.01 1128.76 655.952 1128.76 655.835V651.67C1128.76 651.553 1128.8 651.46 1128.87 651.39C1128.96 651.297 1129.07 651.25 1129.18 651.25H1133.1C1133.22 651.25 1133.31 651.297 1133.38 651.39C1133.48 651.46 1133.52 651.553 1133.52 651.67V655.835C1133.52 655.952 1133.58 656.01 1133.7 656.01H1137.06C1137.18 656.01 1137.27 656.057 1137.34 656.15C1137.43 656.22 1137.48 656.313 1137.48 656.43V659.545ZM1147.07 665.775C1146.96 665.775 1146.85 665.74 1146.76 665.67C1146.69 665.577 1146.65 665.472 1146.65 665.355V661.96C1146.65 661.843 1146.69 661.75 1146.76 661.68C1146.85 661.587 1146.96 661.54 1147.07 661.54H1158.52C1158.63 661.54 1158.73 661.587 1158.8 661.68C1158.89 661.75 1158.94 661.843 1158.94 661.96V665.355C1158.94 665.472 1158.89 665.577 1158.8 665.67C1158.73 665.74 1158.63 665.775 1158.52 665.775H1147.07ZM1177.5 674.28C1175.63 674.28 1174 673.988 1172.6 673.405C1171.2 672.798 1170.12 671.947 1169.35 670.85C1168.6 669.73 1168.23 668.435 1168.23 666.965V666.195C1168.23 666.078 1168.26 665.985 1168.33 665.915C1168.42 665.822 1168.53 665.775 1168.65 665.775H1172.64C1172.75 665.775 1172.85 665.822 1172.92 665.915C1173.01 665.985 1173.06 666.078 1173.06 666.195V666.72C1173.06 667.653 1173.49 668.447 1174.35 669.1C1175.21 669.73 1176.38 670.045 1177.85 670.045C1179.09 670.045 1180.01 669.788 1180.62 669.275C1181.22 668.738 1181.53 668.085 1181.53 667.315C1181.53 666.755 1181.34 666.288 1180.97 665.915C1180.59 665.518 1180.08 665.18 1179.43 664.9C1178.8 664.597 1177.78 664.188 1176.38 663.675C1174.82 663.138 1173.49 662.59 1172.39 662.03C1171.32 661.47 1170.41 660.712 1169.66 659.755C1168.94 658.775 1168.58 657.573 1168.58 656.15C1168.58 654.75 1168.94 653.525 1169.66 652.475C1170.38 651.425 1171.39 650.62 1172.67 650.06C1173.95 649.5 1175.44 649.22 1177.12 649.22C1178.89 649.22 1180.46 649.535 1181.84 650.165C1183.24 650.795 1184.33 651.682 1185.1 652.825C1185.89 653.945 1186.29 655.252 1186.29 656.745V657.27C1186.29 657.387 1186.24 657.492 1186.15 657.585C1186.08 657.655 1185.98 657.69 1185.87 657.69H1181.84C1181.72 657.69 1181.62 657.655 1181.53 657.585C1181.46 657.492 1181.42 657.387 1181.42 657.27V656.99C1181.42 656.01 1181.01 655.182 1180.2 654.505C1179.4 653.805 1178.31 653.455 1176.91 653.455C1175.81 653.455 1174.95 653.688 1174.32 654.155C1173.71 654.622 1173.41 655.263 1173.41 656.08C1173.41 656.663 1173.58 657.153 1173.93 657.55C1174.3 657.947 1174.84 658.308 1175.54 658.635C1176.26 658.938 1177.37 659.358 1178.87 659.895C1180.52 660.502 1181.82 661.038 1182.75 661.505C1183.71 661.972 1184.56 662.672 1185.31 663.605C1186.08 664.515 1186.46 665.705 1186.46 667.175C1186.46 669.368 1185.66 671.107 1184.05 672.39C1182.44 673.65 1180.25 674.28 1177.5 674.28ZM1205.67 660.84C1206.09 662.03 1206.3 663.43 1206.3 665.04C1206.3 666.65 1206.07 668.108 1205.63 669.415C1205.09 670.908 1204.24 672.098 1203.08 672.985C1201.93 673.848 1200.51 674.28 1198.81 674.28C1197.13 674.28 1195.82 673.697 1194.89 672.53C1194.84 672.46 1194.79 672.437 1194.75 672.46C1194.7 672.483 1194.68 672.53 1194.68 672.6V680.09C1194.68 680.207 1194.63 680.3 1194.54 680.37C1194.47 680.463 1194.37 680.51 1194.26 680.51H1190.16C1190.04 680.51 1189.94 680.463 1189.85 680.37C1189.78 680.3 1189.74 680.207 1189.74 680.09V656.43C1189.74 656.313 1189.78 656.22 1189.85 656.15C1189.94 656.057 1190.04 656.01 1190.16 656.01H1194.26C1194.37 656.01 1194.47 656.057 1194.54 656.15C1194.63 656.22 1194.68 656.313 1194.68 656.43V657.585C1194.68 657.655 1194.7 657.702 1194.75 657.725C1194.79 657.725 1194.84 657.702 1194.89 657.655C1195.87 656.372 1197.22 655.73 1198.95 655.73C1200.56 655.73 1201.94 656.185 1203.11 657.095C1204.3 657.982 1205.15 659.23 1205.67 660.84ZM1200.31 668.68C1200.89 667.77 1201.19 666.533 1201.19 664.97C1201.19 663.5 1200.94 662.333 1200.45 661.47C1199.91 660.467 1199.05 659.965 1197.86 659.965C1196.79 659.965 1195.98 660.467 1195.45 661.47C1194.96 662.31 1194.71 663.488 1194.71 665.005C1194.71 666.568 1194.97 667.782 1195.48 668.645C1196.02 669.578 1196.81 670.045 1197.86 670.045C1198.91 670.045 1199.73 669.59 1200.31 668.68ZM1225.32 663.15C1225.46 664.037 1225.5 665.028 1225.46 666.125C1225.43 666.405 1225.28 666.545 1225 666.545H1214.19C1214.05 666.545 1214 666.603 1214.05 666.72C1214.12 667.187 1214.24 667.653 1214.43 668.12C1215.04 669.427 1216.27 670.08 1218.14 670.08C1219.63 670.057 1220.81 669.45 1221.68 668.26C1221.77 668.12 1221.87 668.05 1221.99 668.05C1222.06 668.05 1222.14 668.097 1222.24 668.19L1224.76 670.675C1224.87 670.792 1224.93 670.897 1224.93 670.99C1224.93 671.037 1224.88 671.13 1224.79 671.27C1224.02 672.227 1223.03 672.973 1221.82 673.51C1220.6 674.023 1219.27 674.28 1217.83 674.28C1215.82 674.28 1214.12 673.825 1212.72 672.915C1211.34 672.005 1210.35 670.733 1209.74 669.1C1209.25 667.933 1209.01 666.405 1209.01 664.515C1209.01 663.232 1209.18 662.1 1209.53 661.12C1210.07 659.463 1211 658.145 1212.33 657.165C1213.68 656.185 1215.28 655.695 1217.13 655.695C1219.46 655.695 1221.33 656.372 1222.73 657.725C1224.15 659.078 1225.01 660.887 1225.32 663.15ZM1217.16 659.965C1215.69 659.965 1214.72 660.653 1214.26 662.03C1214.16 662.333 1214.08 662.707 1214.01 663.15C1214.01 663.267 1214.07 663.325 1214.19 663.325H1220.24C1220.38 663.325 1220.43 663.267 1220.38 663.15C1220.26 662.473 1220.21 662.147 1220.21 662.17C1220 661.47 1219.62 660.933 1219.09 660.56C1218.57 660.163 1217.93 659.965 1217.16 659.965Z" fill="#3B414E"/>
<circle cx="319" cy="766" r="58.5" fill="#A2C6FB" stroke="#A2C6FB"/>
<path d="M219.555 683C219.438 683 219.333 682.965 219.24 682.895C219.17 682.802 219.135 682.697 219.135 682.58V658.92C219.135 658.803 219.17 658.71 219.24 658.64C219.333 658.547 219.438 658.5 219.555 658.5H223.65C223.767 658.5 223.86 658.547 223.93 658.64C224.023 658.71 224.07 658.803 224.07 658.92V682.58C224.07 682.697 224.023 682.802 223.93 682.895C223.86 682.965 223.767 683 223.65 683H219.555ZM237.394 664.73C239.261 664.73 240.766 665.302 241.909 666.445C243.053 667.588 243.624 669.14 243.624 671.1V682.58C243.624 682.697 243.578 682.802 243.484 682.895C243.414 682.965 243.321 683 243.204 683H239.109C238.993 683 238.888 682.965 238.794 682.895C238.724 682.802 238.689 682.697 238.689 682.58V672.115C238.689 671.182 238.421 670.423 237.884 669.84C237.371 669.257 236.683 668.965 235.819 668.965C234.956 668.965 234.256 669.257 233.719 669.84C233.206 670.423 232.949 671.182 232.949 672.115V682.58C232.949 682.697 232.903 682.802 232.809 682.895C232.739 682.965 232.646 683 232.529 683H228.434C228.318 683 228.213 682.965 228.119 682.895C228.049 682.802 228.014 682.697 228.014 682.58V665.43C228.014 665.313 228.049 665.22 228.119 665.15C228.213 665.057 228.318 665.01 228.434 665.01H232.529C232.646 665.01 232.739 665.057 232.809 665.15C232.903 665.22 232.949 665.313 232.949 665.43V666.655C232.949 666.725 232.973 666.772 233.019 666.795C233.066 666.818 233.101 666.807 233.124 666.76C234.081 665.407 235.504 664.73 237.394 664.73ZM257.48 668.545C257.48 668.662 257.433 668.767 257.34 668.86C257.27 668.93 257.177 668.965 257.06 668.965H253.7C253.583 668.965 253.525 669.023 253.525 669.14V676.56C253.525 677.33 253.677 677.902 253.98 678.275C254.307 678.648 254.82 678.835 255.52 678.835H256.675C256.792 678.835 256.885 678.882 256.955 678.975C257.048 679.045 257.095 679.138 257.095 679.255V682.58C257.095 682.837 256.955 682.988 256.675 683.035C255.695 683.082 254.995 683.105 254.575 683.105C252.638 683.105 251.192 682.79 250.235 682.16C249.278 681.507 248.788 680.293 248.765 678.52V669.14C248.765 669.023 248.707 668.965 248.59 668.965H246.595C246.478 668.965 246.373 668.93 246.28 668.86C246.21 668.767 246.175 668.662 246.175 668.545V665.43C246.175 665.313 246.21 665.22 246.28 665.15C246.373 665.057 246.478 665.01 246.595 665.01H248.59C248.707 665.01 248.765 664.952 248.765 664.835V660.67C248.765 660.553 248.8 660.46 248.87 660.39C248.963 660.297 249.068 660.25 249.185 660.25H253.105C253.222 660.25 253.315 660.297 253.385 660.39C253.478 660.46 253.525 660.553 253.525 660.67V664.835C253.525 664.952 253.583 665.01 253.7 665.01H257.06C257.177 665.01 257.27 665.057 257.34 665.15C257.433 665.22 257.48 665.313 257.48 665.43V668.545ZM267.073 674.775C266.956 674.775 266.851 674.74 266.758 674.67C266.688 674.577 266.653 674.472 266.653 674.355V670.96C266.653 670.843 266.688 670.75 266.758 670.68C266.851 670.587 266.956 670.54 267.073 670.54H278.518C278.634 670.54 278.728 670.587 278.798 670.68C278.891 670.75 278.938 670.843 278.938 670.96V674.355C278.938 674.472 278.891 674.577 278.798 674.67C278.728 674.74 278.634 674.775 278.518 674.775H267.073ZM289.521 683C289.404 683 289.299 682.965 289.206 682.895C289.136 682.802 289.101 682.697 289.101 682.58V658.92C289.101 658.803 289.136 658.71 289.206 658.64C289.299 658.547 289.404 658.5 289.521 658.5H293.616C293.732 658.5 293.826 658.547 293.896 658.64C293.989 658.71 294.036 658.803 294.036 658.92V678.59C294.036 678.707 294.094 678.765 294.211 678.765H305.656C305.772 678.765 305.866 678.812 305.936 678.905C306.029 678.975 306.076 679.068 306.076 679.185V682.58C306.076 682.697 306.029 682.802 305.936 682.895C305.866 682.965 305.772 683 305.656 683H289.521ZM315.99 664.73C317.507 664.73 318.86 664.998 320.05 665.535C321.24 666.048 322.162 666.76 322.815 667.67C323.492 668.58 323.83 669.595 323.83 670.715V682.58C323.83 682.697 323.783 682.802 323.69 682.895C323.62 682.965 323.527 683 323.41 683H319.315C319.198 683 319.093 682.965 319 682.895C318.93 682.802 318.895 682.697 318.895 682.58V681.425C318.895 681.355 318.872 681.308 318.825 681.285C318.778 681.262 318.732 681.285 318.685 681.355C317.705 682.638 316.13 683.28 313.96 683.28C312.14 683.28 310.67 682.837 309.55 681.95C308.43 681.063 307.87 679.757 307.87 678.03C307.87 676.233 308.5 674.845 309.76 673.865C311.02 672.862 312.817 672.36 315.15 672.36H318.72C318.837 672.36 318.895 672.302 318.895 672.185V671.415C318.895 670.645 318.662 670.05 318.195 669.63C317.728 669.187 317.028 668.965 316.095 668.965C315.372 668.965 314.765 669.093 314.275 669.35C313.808 669.607 313.505 669.968 313.365 670.435C313.295 670.692 313.143 670.808 312.91 670.785L308.675 670.225C308.395 670.178 308.267 670.073 308.29 669.91C308.383 668.93 308.768 668.043 309.445 667.25C310.145 666.457 311.055 665.838 312.175 665.395C313.318 664.952 314.59 664.73 315.99 664.73ZM315.29 679.605C316.293 679.605 317.145 679.337 317.845 678.8C318.545 678.263 318.895 677.575 318.895 676.735V675.475C318.895 675.358 318.837 675.3 318.72 675.3H316.2C315.15 675.3 314.322 675.498 313.715 675.895C313.132 676.292 312.84 676.852 312.84 677.575C312.84 678.205 313.062 678.707 313.505 679.08C313.948 679.43 314.543 679.605 315.29 679.605ZM326.746 683C326.63 683 326.525 682.965 326.431 682.895C326.361 682.802 326.326 682.697 326.326 682.58V678.835C326.326 678.648 326.396 678.473 326.536 678.31L334.411 669.665C334.528 669.525 334.505 669.455 334.341 669.455H326.956C326.84 669.455 326.735 669.42 326.641 669.35C326.571 669.257 326.536 669.152 326.536 669.035V665.43C326.536 665.313 326.571 665.22 326.641 665.15C326.735 665.057 326.84 665.01 326.956 665.01H340.046C340.163 665.01 340.256 665.057 340.326 665.15C340.42 665.22 340.466 665.313 340.466 665.43V669.14C340.466 669.303 340.396 669.478 340.256 669.665L332.136 678.31C332.043 678.45 332.066 678.52 332.206 678.52H340.221C340.338 678.52 340.431 678.567 340.501 678.66C340.595 678.73 340.641 678.823 340.641 678.94V682.58C340.641 682.697 340.595 682.802 340.501 682.895C340.431 682.965 340.338 683 340.221 683H326.746Z" fill="#3B414E"/>
<mask id="mask0" mask-type="alpha" maskUnits="userSpaceOnUse" x="431" y="654" width="108" height="108">
<path fill-rule="evenodd" clip-rule="evenodd" d="M502.553 656.91V666.423L487.19 677.635L468.208 670.338L466.228 657.338C472.27 655.108 478.637 654 484.989 654C490.927 654 496.865 654.975 502.553 656.91ZM526.334 686.041H534.356C531.697 680.058 527.945 674.563 523.174 669.791C518.358 664.976 512.833 661.253 506.938 658.638V666.645L526.334 686.041ZM443.435 725.541L454.631 710.192L447.335 691.21L434.335 689.231C430.037 700.901 429.888 713.782 433.92 725.541H443.435ZM463.035 757.331V749.339L443.625 729.928H435.633C438.248 735.823 441.97 741.347 446.801 746.178C451.616 751.008 457.141 754.731 463.035 757.331ZM503.733 758.631C492.065 762.929 479.182 763.077 467.423 759.059V749.561L482.773 738.348L501.769 745.646L503.733 758.631ZM503.201 741.495L518.504 726.206L511.267 707.415L491.737 704.328L486.537 709.543L481.322 714.757L484.41 734.271L503.201 741.495ZM538.995 707.992C538.995 714.491 537.857 720.829 535.656 726.752L522.642 724.773L515.345 705.776L526.557 690.428H536.1C538.005 696.012 538.995 701.92 538.995 707.992ZM483.437 706.44L488.638 701.226L485.565 681.697L466.759 674.488L451.486 689.763L458.693 708.568L478.238 711.64L483.437 706.44ZM522.556 688.463L511.891 703.073L492.909 700.074L489.895 681.092L504.52 670.412L522.556 688.463ZM465.46 745.557L480.072 734.892L477.073 715.91L458.091 712.896L447.424 727.521L465.46 745.557ZM533.885 730.918C533.826 731.036 533.774 731.151 533.722 731.265C533.67 731.38 533.619 731.494 533.56 731.613C533.338 732.085 533.102 732.558 532.865 733.016C532.526 733.695 532.142 734.375 531.757 735.04L531.743 735.054C531.492 735.483 531.24 735.896 530.975 736.31C530.103 737.758 529.143 739.161 528.109 740.505C527.813 740.919 527.488 741.318 527.163 741.717C527.075 741.835 526.986 741.953 526.883 742.056C526.218 742.898 525.494 743.726 524.77 744.523L524.729 744.567L524.729 744.567C524.212 745.113 523.707 745.645 523.175 746.178C522.673 746.68 522.17 747.168 521.653 747.64C521.048 748.202 520.427 748.763 519.792 749.28C519.201 749.782 518.61 750.27 518.005 750.728C517.68 750.994 517.355 751.245 517.015 751.466C516.823 751.629 516.616 751.776 516.409 751.909C516.202 752.072 516.01 752.22 515.804 752.338C515.36 752.663 514.917 752.958 514.474 753.239C514.179 753.446 513.883 753.638 513.573 753.815C513.204 754.066 512.82 754.288 512.436 754.509C512.051 754.746 511.667 754.967 511.269 755.174C511.239 755.204 511.224 755.218 511.195 755.218C510.899 755.396 510.604 755.558 510.308 755.706C510.234 755.75 510.175 755.78 510.102 755.809C509.717 756.016 509.319 756.223 508.92 756.4C508.595 756.577 508.255 756.74 507.915 756.902V756.888L506.084 744.819L521.831 729.086L533.885 730.918ZM448.147 686.883L463.894 671.15L462.062 659.067C461.98 659.106 461.896 659.146 461.812 659.185C461.551 659.309 461.285 659.435 461.028 659.569C460.23 659.953 459.462 660.367 458.693 660.81C458.295 661.017 457.911 661.238 457.526 661.475L457.5 661.489C457.126 661.706 456.751 661.923 456.39 662.169C456.035 662.376 455.679 662.597 455.341 662.834C454.941 663.099 454.543 663.365 454.144 663.646L454.144 663.646C453.908 663.809 453.672 663.971 453.435 664.148C452.977 664.473 452.534 664.798 452.106 665.138C451.692 665.448 451.293 665.773 450.894 666.098C450.052 666.792 449.225 667.502 448.428 668.24C447.881 668.742 447.334 669.259 446.803 669.791C446.256 670.338 445.724 670.899 445.207 671.46C444.72 671.992 444.247 672.524 443.789 673.071C443.42 673.514 443.051 673.972 442.681 674.43L442.681 674.43C440.168 677.65 438.012 681.21 436.226 685.08L448.147 686.883Z" fill="white"/>
</mask>
<g mask="url(#mask0)">
<rect x="397.469" y="615.001" width="174.902" height="174.902" fill="#266FF2"/>
</g>
<mask id="mask1" mask-type="alpha" maskUnits="userSpaceOnUse" x="309" y="87" width="108" height="108">
<path fill-rule="evenodd" clip-rule="evenodd" d="M380.553 89.9101V99.4234L365.19 110.635L346.208 103.338L344.228 90.3385C350.27 88.1079 356.637 87 362.989 87C368.927 87 374.865 87.975 380.553 89.9101ZM404.334 119.041H412.356C409.697 113.058 405.945 107.563 401.174 102.791C396.358 97.9756 390.833 94.253 384.938 91.6384V99.6448L404.334 119.041ZM321.435 158.541L332.631 143.192L325.335 124.21L312.335 122.231C308.037 133.901 307.888 146.782 311.92 158.541H321.435ZM341.035 190.331V182.339L321.625 162.928H313.633C316.248 168.823 319.97 174.347 324.801 179.178C329.616 184.008 335.141 187.731 341.035 190.331ZM381.733 191.631C370.065 195.929 357.182 196.077 345.423 192.059V182.561L360.773 171.348L379.769 178.646L381.733 191.631ZM381.201 174.495L396.504 159.206L389.267 140.415L369.737 137.328L364.537 142.543L359.322 147.757L362.41 167.271L381.201 174.495ZM416.995 140.992C416.995 147.491 415.857 153.829 413.656 159.752L400.642 157.773L393.345 138.776L404.557 123.428H414.1C416.005 129.012 416.995 134.92 416.995 140.992ZM361.437 139.44L366.638 134.226L363.565 114.697L344.759 107.488L329.486 122.763L336.693 141.568L356.238 144.64L361.437 139.44ZM400.556 121.463L389.891 136.073L370.909 133.074L367.895 114.092L382.52 103.412L400.556 121.463ZM343.46 178.557L358.072 167.892L355.073 148.91L336.091 145.896L325.424 160.521L343.46 178.557ZM411.885 163.918C411.826 164.036 411.774 164.151 411.722 164.265C411.67 164.38 411.619 164.494 411.56 164.613C411.338 165.085 411.102 165.558 410.865 166.016C410.526 166.695 410.142 167.375 409.757 168.04L409.743 168.054C409.492 168.483 409.24 168.896 408.975 169.31C408.103 170.758 407.143 172.161 406.109 173.505C405.813 173.919 405.488 174.318 405.163 174.717C405.075 174.835 404.986 174.953 404.883 175.056C404.218 175.898 403.494 176.726 402.77 177.523L402.729 177.567L402.729 177.567C402.212 178.113 401.707 178.645 401.175 179.178C400.673 179.68 400.17 180.168 399.653 180.64C399.048 181.202 398.427 181.763 397.792 182.28C397.201 182.782 396.61 183.27 396.005 183.728C395.68 183.994 395.355 184.245 395.015 184.466C394.823 184.629 394.616 184.776 394.409 184.909C394.202 185.072 394.01 185.22 393.804 185.338C393.36 185.663 392.917 185.958 392.474 186.239C392.179 186.446 391.883 186.638 391.573 186.815C391.204 187.066 390.82 187.288 390.436 187.509C390.051 187.746 389.667 187.967 389.269 188.174C389.239 188.204 389.224 188.218 389.195 188.218C388.899 188.396 388.604 188.558 388.308 188.706C388.234 188.75 388.175 188.78 388.102 188.809C387.717 189.016 387.319 189.223 386.92 189.4C386.595 189.577 386.255 189.74 385.915 189.902V189.888L384.084 177.819L399.831 162.086L411.885 163.918ZM326.147 119.883L341.894 104.15L340.062 92.0666C339.98 92.1061 339.896 92.1456 339.812 92.1854C339.551 92.309 339.285 92.4347 339.028 92.5689C338.23 92.953 337.462 93.3666 336.693 93.8098C336.295 94.0166 335.911 94.2381 335.526 94.4745L335.5 94.4891C335.126 94.7058 334.751 94.9232 334.39 95.1688C334.035 95.3756 333.679 95.5972 333.341 95.8335C332.941 96.0994 332.543 96.3653 332.144 96.646L332.144 96.646C331.908 96.8085 331.672 96.971 331.435 97.1483C330.977 97.4732 330.534 97.7982 330.106 98.138C329.692 98.4482 329.293 98.7732 328.894 99.0982C328.052 99.7925 327.225 100.502 326.428 101.24C325.881 101.742 325.334 102.259 324.803 102.791C324.256 103.338 323.724 103.899 323.207 104.46C322.72 104.992 322.247 105.524 321.789 106.071C321.42 106.514 321.051 106.972 320.681 107.43L320.681 107.43C318.168 110.65 316.012 114.21 314.226 118.08L326.147 119.883Z" fill="white"/>
</mask>
<g mask="url(#mask1)">
<rect x="275.469" y="48.001" width="174.902" height="174.902" fill="#266FF2"/>
</g>
<mask id="mask2" mask-type="alpha" maskUnits="userSpaceOnUse" x="1119" y="712" width="108" height="108">
<path fill-rule="evenodd" clip-rule="evenodd" d="M1190.55 714.91V724.423L1175.19 735.635L1156.21 728.338L1154.23 715.338C1160.27 713.108 1166.64 712 1172.99 712C1178.93 712 1184.87 712.975 1190.55 714.91ZM1214.33 744.041H1222.36C1219.7 738.058 1215.95 732.563 1211.17 727.791C1206.36 722.976 1200.83 719.253 1194.94 716.638V724.645L1214.33 744.041ZM1131.44 783.541L1142.63 768.192L1135.33 749.21L1122.34 747.231C1118.04 758.901 1117.89 771.782 1121.92 783.541H1131.44ZM1151.04 815.331V807.339L1131.62 787.928H1123.63C1126.25 793.823 1129.97 799.347 1134.8 804.178C1139.62 809.008 1145.14 812.731 1151.04 815.331ZM1191.73 816.631C1180.06 820.929 1167.18 821.077 1155.42 817.059V807.561L1170.77 796.348L1189.77 803.646L1191.73 816.631ZM1191.2 799.495L1206.5 784.206L1199.27 765.415L1179.74 762.328L1174.54 767.543L1169.32 772.757L1172.41 792.271L1191.2 799.495ZM1226.99 765.992C1226.99 772.491 1225.86 778.829 1223.66 784.752L1210.64 782.773L1203.34 763.776L1214.56 748.428H1224.1C1226.01 754.012 1226.99 759.92 1226.99 765.992ZM1171.44 764.44L1176.64 759.226L1173.57 739.697L1154.76 732.488L1139.49 747.763L1146.69 766.568L1166.24 769.64L1171.44 764.44ZM1210.56 746.463L1199.89 761.073L1180.91 758.074L1177.9 739.092L1192.52 728.412L1210.56 746.463ZM1153.46 803.557L1168.07 792.892L1165.07 773.91L1146.09 770.896L1135.42 785.521L1153.46 803.557ZM1221.88 788.918C1221.83 789.036 1221.77 789.151 1221.72 789.265C1221.67 789.38 1221.62 789.494 1221.56 789.613C1221.34 790.085 1221.1 790.558 1220.87 791.016C1220.53 791.695 1220.14 792.375 1219.76 793.04L1219.74 793.054C1219.49 793.483 1219.24 793.896 1218.97 794.31C1218.1 795.758 1217.14 797.161 1216.11 798.505C1215.81 798.919 1215.49 799.318 1215.16 799.717C1215.07 799.835 1214.99 799.953 1214.88 800.056C1214.22 800.898 1213.49 801.726 1212.77 802.523L1212.73 802.567L1212.73 802.567C1212.21 803.113 1211.71 803.645 1211.17 804.178C1210.67 804.68 1210.17 805.168 1209.65 805.64C1209.05 806.202 1208.43 806.763 1207.79 807.28C1207.2 807.782 1206.61 808.27 1206 808.728C1205.68 808.994 1205.35 809.245 1205.01 809.466C1204.82 809.629 1204.62 809.776 1204.41 809.909C1204.2 810.072 1204.01 810.22 1203.8 810.338C1203.36 810.663 1202.92 810.958 1202.47 811.239C1202.18 811.446 1201.88 811.638 1201.57 811.815C1201.2 812.066 1200.82 812.288 1200.44 812.509C1200.05 812.746 1199.67 812.967 1199.27 813.174C1199.24 813.204 1199.22 813.218 1199.19 813.218C1198.9 813.396 1198.6 813.558 1198.31 813.706C1198.23 813.75 1198.18 813.78 1198.1 813.809C1197.72 814.016 1197.32 814.223 1196.92 814.4C1196.59 814.577 1196.26 814.74 1195.92 814.902V814.888L1194.08 802.819L1209.83 787.086L1221.88 788.918ZM1136.15 744.883L1151.89 729.15L1150.06 717.067C1149.98 717.106 1149.9 717.146 1149.81 717.185C1149.55 717.309 1149.29 717.435 1149.03 717.569C1148.23 717.953 1147.46 718.367 1146.69 718.81C1146.3 719.017 1145.91 719.238 1145.53 719.475L1145.5 719.489C1145.13 719.706 1144.75 719.923 1144.39 720.169C1144.04 720.376 1143.68 720.597 1143.34 720.834C1142.94 721.099 1142.54 721.365 1142.14 721.646L1142.14 721.646C1141.91 721.809 1141.67 721.971 1141.44 722.148C1140.98 722.473 1140.53 722.798 1140.11 723.138C1139.69 723.448 1139.29 723.773 1138.89 724.098C1138.05 724.792 1137.23 725.502 1136.43 726.24C1135.88 726.742 1135.33 727.259 1134.8 727.791C1134.26 728.338 1133.72 728.899 1133.21 729.46C1132.72 729.992 1132.25 730.524 1131.79 731.071C1131.42 731.514 1131.05 731.972 1130.68 732.43L1130.68 732.43C1128.17 735.65 1126.01 739.21 1124.23 743.08L1136.15 744.883Z" fill="white"/>
</mask>
<g mask="url(#mask2)">
<rect x="1085.47" y="673.001" width="174.902" height="174.902" fill="#266FF2"/>
</g>
<mask id="mask3" mask-type="alpha" maskUnits="userSpaceOnUse" x="1442" y="712" width="108" height="108">
<path fill-rule="evenodd" clip-rule="evenodd" d="M1513.55 714.91V724.423L1498.19 735.635L1479.21 728.338L1477.23 715.338C1483.27 713.108 1489.64 712 1495.99 712C1501.93 712 1507.87 712.975 1513.55 714.91ZM1537.33 744.041H1545.36C1542.7 738.058 1538.95 732.563 1534.17 727.791C1529.36 722.976 1523.83 719.253 1517.94 716.638V724.645L1537.33 744.041ZM1454.44 783.541L1465.63 768.192L1458.33 749.21L1445.34 747.231C1441.04 758.901 1440.89 771.782 1444.92 783.541H1454.44ZM1474.04 815.331V807.339L1454.62 787.928H1446.63C1449.25 793.823 1452.97 799.347 1457.8 804.178C1462.62 809.008 1468.14 812.731 1474.04 815.331ZM1514.73 816.631C1503.06 820.929 1490.18 821.077 1478.42 817.059V807.561L1493.77 796.348L1512.77 803.646L1514.73 816.631ZM1514.2 799.495L1529.5 784.206L1522.27 765.415L1502.74 762.328L1497.54 767.543L1492.32 772.757L1495.41 792.271L1514.2 799.495ZM1549.99 765.992C1549.99 772.491 1548.86 778.829 1546.66 784.752L1533.64 782.773L1526.34 763.776L1537.56 748.428H1547.1C1549.01 754.012 1549.99 759.92 1549.99 765.992ZM1494.44 764.44L1499.64 759.226L1496.57 739.697L1477.76 732.488L1462.49 747.763L1469.69 766.568L1489.24 769.64L1494.44 764.44ZM1533.56 746.463L1522.89 761.073L1503.91 758.074L1500.9 739.092L1515.52 728.412L1533.56 746.463ZM1476.46 803.557L1491.07 792.892L1488.07 773.91L1469.09 770.896L1458.42 785.521L1476.46 803.557ZM1544.88 788.918C1544.83 789.036 1544.77 789.151 1544.72 789.265C1544.67 789.38 1544.62 789.494 1544.56 789.613C1544.34 790.085 1544.1 790.558 1543.87 791.016C1543.53 791.695 1543.14 792.375 1542.76 793.04L1542.74 793.054C1542.49 793.483 1542.24 793.896 1541.97 794.31C1541.1 795.758 1540.14 797.161 1539.11 798.505C1538.81 798.919 1538.49 799.318 1538.16 799.717C1538.07 799.835 1537.99 799.953 1537.88 800.056C1537.22 800.898 1536.49 801.726 1535.77 802.523L1535.73 802.567L1535.73 802.567C1535.21 803.113 1534.71 803.645 1534.17 804.178C1533.67 804.68 1533.17 805.168 1532.65 805.64C1532.05 806.202 1531.43 806.763 1530.79 807.28C1530.2 807.782 1529.61 808.27 1529 808.728C1528.68 808.994 1528.35 809.245 1528.01 809.466C1527.82 809.629 1527.62 809.776 1527.41 809.909C1527.2 810.072 1527.01 810.22 1526.8 810.338C1526.36 810.663 1525.92 810.958 1525.47 811.239C1525.18 811.446 1524.88 811.638 1524.57 811.815C1524.2 812.066 1523.82 812.288 1523.44 812.509C1523.05 812.746 1522.67 812.967 1522.27 813.174C1522.24 813.204 1522.22 813.218 1522.19 813.218C1521.9 813.396 1521.6 813.558 1521.31 813.706C1521.23 813.75 1521.18 813.78 1521.1 813.809C1520.72 814.016 1520.32 814.223 1519.92 814.4C1519.59 814.577 1519.26 814.74 1518.92 814.902V814.888L1517.08 802.819L1532.83 787.086L1544.88 788.918ZM1459.15 744.883L1474.89 729.15L1473.06 717.067C1472.98 717.106 1472.9 717.146 1472.81 717.185C1472.55 717.309 1472.29 717.435 1472.03 717.569C1471.23 717.953 1470.46 718.367 1469.69 718.81C1469.3 719.017 1468.91 719.238 1468.53 719.475L1468.5 719.489C1468.13 719.706 1467.75 719.923 1467.39 720.169C1467.04 720.376 1466.68 720.597 1466.34 720.834C1465.94 721.099 1465.54 721.365 1465.14 721.646L1465.14 721.646C1464.91 721.809 1464.67 721.971 1464.44 722.148C1463.98 722.473 1463.53 722.798 1463.11 723.138C1462.69 723.448 1462.29 723.773 1461.89 724.098C1461.05 724.792 1460.23 725.502 1459.43 726.24C1458.88 726.742 1458.33 727.259 1457.8 727.791C1457.26 728.338 1456.72 728.899 1456.21 729.46C1455.72 729.992 1455.25 730.524 1454.79 731.071C1454.42 731.514 1454.05 731.972 1453.68 732.43L1453.68 732.43C1451.17 735.65 1449.01 739.21 1447.23 743.08L1459.15 744.883Z" fill="white"/>
</mask>
<g mask="url(#mask3)">
<rect x="1408.47" y="673.001" width="174.902" height="174.902" fill="#266FF2"/>
</g>
<mask id="mask4" mask-type="alpha" maskUnits="userSpaceOnUse" x="265" y="712" width="108" height="108">
<path fill-rule="evenodd" clip-rule="evenodd" d="M336.553 714.91V724.423L321.19 735.635L302.208 728.338L300.228 715.338C306.27 713.108 312.637 712 318.989 712C324.927 712 330.865 712.975 336.553 714.91ZM360.334 744.041H368.356C365.697 738.058 361.945 732.563 357.174 727.791C352.358 722.976 346.833 719.253 340.938 716.638V724.645L360.334 744.041ZM277.435 783.541L288.631 768.192L281.335 749.21L268.335 747.231C264.037 758.901 263.888 771.782 267.92 783.541H277.435ZM297.035 815.331V807.339L277.625 787.928H269.633C272.248 793.823 275.97 799.347 280.801 804.178C285.616 809.008 291.141 812.731 297.035 815.331ZM337.733 816.631C326.065 820.929 313.182 821.077 301.423 817.059V807.561L316.773 796.348L335.769 803.646L337.733 816.631ZM337.201 799.495L352.504 784.206L345.267 765.415L325.737 762.328L320.537 767.543L315.322 772.757L318.41 792.271L337.201 799.495ZM372.995 765.992C372.995 772.491 371.857 778.829 369.656 784.752L356.642 782.773L349.345 763.776L360.557 748.428H370.1C372.005 754.012 372.995 759.92 372.995 765.992ZM317.437 764.44L322.638 759.226L319.565 739.697L300.759 732.488L285.486 747.763L292.693 766.568L312.238 769.64L317.437 764.44ZM356.556 746.463L345.891 761.073L326.909 758.074L323.895 739.092L338.52 728.412L356.556 746.463ZM299.46 803.557L314.072 792.892L311.073 773.91L292.091 770.896L281.424 785.521L299.46 803.557ZM367.885 788.918C367.826 789.036 367.774 789.151 367.722 789.265C367.67 789.38 367.619 789.494 367.56 789.613C367.338 790.085 367.102 790.558 366.865 791.016C366.526 791.695 366.142 792.375 365.757 793.04L365.743 793.054C365.492 793.483 365.24 793.896 364.975 794.31C364.103 795.758 363.143 797.161 362.109 798.505C361.813 798.919 361.488 799.318 361.163 799.717C361.075 799.835 360.986 799.953 360.883 800.056C360.218 800.898 359.494 801.726 358.77 802.523L358.729 802.567L358.729 802.567C358.212 803.113 357.707 803.645 357.175 804.178C356.673 804.68 356.17 805.168 355.653 805.64C355.048 806.202 354.427 806.763 353.792 807.28C353.201 807.782 352.61 808.27 352.005 808.728C351.68 808.994 351.355 809.245 351.015 809.466C350.823 809.629 350.616 809.776 350.409 809.909C350.202 810.072 350.01 810.22 349.804 810.338C349.36 810.663 348.917 810.958 348.474 811.239C348.179 811.446 347.883 811.638 347.573 811.815C347.204 812.066 346.82 812.288 346.436 812.509C346.051 812.746 345.667 812.967 345.269 813.174C345.239 813.204 345.224 813.218 345.195 813.218C344.899 813.396 344.604 813.558 344.308 813.706C344.234 813.75 344.175 813.78 344.102 813.809C343.717 814.016 343.319 814.223 342.92 814.4C342.595 814.577 342.255 814.74 341.915 814.902V814.888L340.084 802.819L355.831 787.086L367.885 788.918ZM282.147 744.883L297.894 729.15L296.062 717.067C295.98 717.106 295.896 717.146 295.812 717.185C295.551 717.309 295.285 717.435 295.028 717.569C294.23 717.953 293.462 718.367 292.693 718.81C292.295 719.017 291.911 719.238 291.526 719.475L291.5 719.489C291.126 719.706 290.751 719.923 290.39 720.169C290.035 720.376 289.679 720.597 289.341 720.834C288.941 721.099 288.543 721.365 288.144 721.646L288.144 721.646C287.908 721.809 287.672 721.971 287.435 722.148C286.977 722.473 286.534 722.798 286.106 723.138C285.692 723.448 285.293 723.773 284.894 724.098C284.052 724.792 283.225 725.502 282.428 726.24C281.881 726.742 281.334 727.259 280.803 727.791C280.256 728.338 279.724 728.899 279.207 729.46C278.72 729.992 278.247 730.524 277.789 731.071C277.42 731.514 277.051 731.972 276.681 732.43L276.681 732.43C274.168 735.65 272.012 739.21 270.226 743.08L282.147 744.883Z" fill="white"/>
</mask>
<g mask="url(#mask4)">
<rect x="231.469" y="673.001" width="174.902" height="174.902" fill="#266FF2"/>
</g>
<path d="M305.555 65C305.438 65 305.333 64.965 305.24 64.895C305.17 64.8017 305.135 64.6967 305.135 64.58V40.92C305.135 40.8033 305.17 40.71 305.24 40.64C305.333 40.5467 305.438 40.5 305.555 40.5H309.65C309.767 40.5 309.86 40.5467 309.93 40.64C310.023 40.71 310.07 40.8033 310.07 40.92V64.58C310.07 64.6967 310.023 64.8017 309.93 64.895C309.86 64.965 309.767 65 309.65 65H305.555ZM323.394 46.73C325.261 46.73 326.766 47.3017 327.909 48.445C329.053 49.5883 329.624 51.14 329.624 53.1V64.58C329.624 64.6967 329.578 64.8017 329.484 64.895C329.414 64.965 329.321 65 329.204 65H325.109C324.993 65 324.888 64.965 324.794 64.895C324.724 64.8017 324.689 64.6967 324.689 64.58V54.115C324.689 53.1817 324.421 52.4233 323.884 51.84C323.371 51.2567 322.683 50.965 321.819 50.965C320.956 50.965 320.256 51.2567 319.719 51.84C319.206 52.4233 318.949 53.1817 318.949 54.115V64.58C318.949 64.6967 318.903 64.8017 318.809 64.895C318.739 64.965 318.646 65 318.529 65H314.434C314.318 65 314.213 64.965 314.119 64.895C314.049 64.8017 314.014 64.6967 314.014 64.58V47.43C314.014 47.3133 314.049 47.22 314.119 47.15C314.213 47.0567 314.318 47.01 314.434 47.01H318.529C318.646 47.01 318.739 47.0567 318.809 47.15C318.903 47.22 318.949 47.3133 318.949 47.43V48.655C318.949 48.725 318.973 48.7717 319.019 48.795C319.066 48.8183 319.101 48.8067 319.124 48.76C320.081 47.4067 321.504 46.73 323.394 46.73ZM343.48 50.545C343.48 50.6617 343.433 50.7667 343.34 50.86C343.27 50.93 343.177 50.965 343.06 50.965H339.7C339.583 50.965 339.525 51.0233 339.525 51.14V58.56C339.525 59.33 339.677 59.9017 339.98 60.275C340.307 60.6483 340.82 60.835 341.52 60.835H342.675C342.792 60.835 342.885 60.8817 342.955 60.975C343.048 61.045 343.095 61.1383 343.095 61.255V64.58C343.095 64.8367 342.955 64.9883 342.675 65.035C341.695 65.0817 340.995 65.105 340.575 65.105C338.638 65.105 337.192 64.79 336.235 64.16C335.278 63.5067 334.788 62.2933 334.765 60.52V51.14C334.765 51.0233 334.707 50.965 334.59 50.965H332.595C332.478 50.965 332.373 50.93 332.28 50.86C332.21 50.7667 332.175 50.6617 332.175 50.545V47.43C332.175 47.3133 332.21 47.22 332.28 47.15C332.373 47.0567 332.478 47.01 332.595 47.01H334.59C334.707 47.01 334.765 46.9517 334.765 46.835V42.67C334.765 42.5533 334.8 42.46 334.87 42.39C334.963 42.2967 335.068 42.25 335.185 42.25H339.105C339.222 42.25 339.315 42.2967 339.385 42.39C339.478 42.46 339.525 42.5533 339.525 42.67V46.835C339.525 46.9517 339.583 47.01 339.7 47.01H343.06C343.177 47.01 343.27 47.0567 343.34 47.15C343.433 47.22 343.48 47.3133 343.48 47.43V50.545ZM353.073 56.775C352.956 56.775 352.851 56.74 352.758 56.67C352.688 56.5767 352.653 56.4717 352.653 56.355V52.96C352.653 52.8433 352.688 52.75 352.758 52.68C352.851 52.5867 352.956 52.54 353.073 52.54H364.518C364.634 52.54 364.728 52.5867 364.798 52.68C364.891 52.75 364.938 52.8433 364.938 52.96V56.355C364.938 56.4717 364.891 56.5767 364.798 56.67C364.728 56.74 364.634 56.775 364.518 56.775H353.073ZM390.851 40.78C390.967 40.5933 391.131 40.5 391.341 40.5H395.436C395.552 40.5 395.646 40.5467 395.716 40.64C395.809 40.71 395.856 40.8033 395.856 40.92V64.58C395.856 64.6967 395.809 64.8017 395.716 64.895C395.646 64.965 395.552 65 395.436 65H391.341C391.224 65 391.119 64.965 391.026 64.895C390.956 64.8017 390.921 64.6967 390.921 64.58V49.145C390.921 49.0517 390.897 49.005 390.851 49.005C390.804 49.005 390.757 49.04 390.711 49.11L387.001 54.92C386.884 55.1067 386.721 55.2 386.511 55.2H384.446C384.236 55.2 384.072 55.1067 383.956 54.92L380.246 49.11C380.199 49.04 380.152 49.0167 380.106 49.04C380.059 49.04 380.036 49.0867 380.036 49.18V64.58C380.036 64.6967 379.989 64.8017 379.896 64.895C379.826 64.965 379.732 65 379.616 65H375.521C375.404 65 375.299 64.965 375.206 64.895C375.136 64.8017 375.101 64.6967 375.101 64.58V40.92C375.101 40.8033 375.136 40.71 375.206 40.64C375.299 40.5467 375.404 40.5 375.521 40.5H379.616C379.826 40.5 379.989 40.5933 380.106 40.78L385.356 48.935C385.426 49.075 385.496 49.075 385.566 48.935L390.851 40.78ZM402.465 44.98C401.672 44.98 401.007 44.7233 400.47 44.21C399.957 43.6733 399.7 43.0083 399.7 42.215C399.7 41.3983 399.957 40.7333 400.47 40.22C400.984 39.7067 401.649 39.45 402.465 39.45C403.282 39.45 403.947 39.7067 404.46 40.22C404.974 40.7333 405.23 41.3983 405.23 42.215C405.23 43.0083 404.962 43.6733 404.425 44.21C403.912 44.7233 403.259 44.98 402.465 44.98ZM400.365 65C400.249 65 400.144 64.965 400.05 64.895C399.98 64.8017 399.945 64.6967 399.945 64.58V47.395C399.945 47.2783 399.98 47.185 400.05 47.115C400.144 47.0217 400.249 46.975 400.365 46.975H404.46C404.577 46.975 404.67 47.0217 404.74 47.115C404.834 47.185 404.88 47.2783 404.88 47.395V64.58C404.88 64.6967 404.834 64.8017 404.74 64.895C404.67 64.965 404.577 65 404.46 65H400.365ZM409.146 65C409.03 65 408.925 64.965 408.831 64.895C408.761 64.8017 408.726 64.6967 408.726 64.58V40.92C408.726 40.8033 408.761 40.71 408.831 40.64C408.925 40.5467 409.03 40.5 409.146 40.5H413.241C413.358 40.5 413.451 40.5467 413.521 40.64C413.615 40.71 413.661 40.8033 413.661 40.92V64.58C413.661 64.6967 413.615 64.8017 413.521 64.895C413.451 64.965 413.358 65 413.241 65H409.146Z" fill="#3B414E"/>
</svg>
