<svg width="1849" height="925" viewBox="0 0 1849 925" fill="none" xmlns="http://www.w3.org/2000/svg">
<path d="M0.5 0.5H1848.5V924.5H0.5V0.5Z" fill="#E9F2FF"/>
<rect x="187" y="89.0002" width="1474" height="748" fill="#CEE2FF"/>
<line x1="187.024" y1="833.5" x2="1654.07" y2="833.5" stroke="black" stroke-width="7"/>
<line x1="924.5" y1="87.0007" x2="924.5" y2="837.001" stroke="black" stroke-width="7"/>
<circle cx="922" cy="462.005" r="120.5" fill="#CEE2FF" stroke="black" stroke-width="7"/>
<circle cx="414.874" cy="461.716" r="104.532" fill="#CEE2FF" stroke="black" stroke-width="7"/>
<rect x="187" y="271.292" width="271.952" height="380.271" fill="#CEE2FF"/>
<path d="M187 272.445H458.664" stroke="black" stroke-width="7"/>
<path d="M458.952 653.005V271.004" stroke="black" stroke-width="7"/>
<path d="M284.949 563.122V364.632" stroke="black" stroke-width="7"/>
<path d="M187 651.564H458.664" stroke="black" stroke-width="7"/>
<path d="M187 365.784H286.101M187 562.258H286.101" stroke="black" stroke-width="7"/>
<circle cx="370.51" cy="462.868" r="4.32127" fill="black"/>
<circle cx="1433.12" cy="461.289" r="104.532" transform="rotate(-180 1433.12 461.289)" fill="#CEE2FF" stroke="black" stroke-width="7"/>
<rect x="1660" y="651.712" width="271.952" height="380.271" transform="rotate(-180 1660 651.712)" fill="#CEE2FF"/>
<path d="M1660 650.78L1389.34 650.78" stroke="black" stroke-width="7"/>
<path d="M1389.05 268V654" stroke="black" stroke-width="7"/>
<path d="M1564 358L1563.05 558.373" stroke="black" stroke-width="7"/>
<path d="M1660 271.22H1389.34" stroke="black" stroke-width="7"/>
<path d="M1660 557H1562M1660 361H1562" stroke="black" stroke-width="7"/>
<circle cx="1477.49" cy="460.136" r="4.32127" transform="rotate(-180 1477.49 460.136)" fill="black"/>
<circle cx="922.321" cy="458.326" r="4.32127" transform="rotate(-180 922.321 458.326)" fill="black"/>
<path d="M1656.75 837L1656.75 85.9998" stroke="black" stroke-width="7"/>
<line x1="187" y1="89.5045" x2="1654.05" y2="89.5045" stroke="black" stroke-width="7"/>
<line x1="190.5" y1="93.0045" x2="190.5" y2="837.005" stroke="black" stroke-width="7"/>
</svg>
