<svg width="1125" height="389" viewBox="0 0 1125 389" fill="none" xmlns="http://www.w3.org/2000/svg">
<path d="M387.08 249.56V237.43C380.35 245.43 370.08 251.65 355.08 251.65C336.38 251.65 319.91 240.98 319.91 221.15V220.78C319.91 198.89 336.91 188.42 359.91 188.42C369.179 188.259 378.409 189.648 387.22 192.53V190.63C387.22 176.97 378.61 169.49 362.9 169.49C351.9 169.49 343.63 171.92 334.65 175.67L328.48 157.52C339.33 152.66 349.99 149.29 366.08 149.29C395.26 149.29 409.48 164.63 409.48 191V249.56H387.08ZM387.64 208.22C380.389 205.566 372.721 204.235 365 204.29C350.78 204.29 342.36 210.09 342.36 219.63V220C342.36 229.35 350.78 234.59 361.44 234.59C376.44 234.59 387.63 226.17 387.63 213.83L387.64 208.22Z" fill="#1A1B1F"/>
<path d="M422.72 236.65L432.82 221.31C443.48 229.31 455.08 233.47 465.18 233.47C474.91 233.47 480.52 229.35 480.52 222.81V222.43C480.52 214.76 470.05 212.14 458.45 208.59C443.86 204.47 427.58 198.49 427.58 179.59V179.22C427.58 160.51 443.11 149.1 462.75 149.1C475.1 149.1 488.57 153.4 499.04 160.33L490.04 176.41C480.5 170.61 470.4 167.06 462.17 167.06C453.38 167.06 448.33 171.18 448.33 176.97V177.35C448.33 184.46 458.99 187.45 470.59 191.19C484.99 195.68 501.27 202.19 501.27 220V220.37C501.27 241.14 485.18 251.43 464.6 251.43C449.397 251.227 434.682 246.034 422.72 236.65V236.65Z" fill="#1A1B1F"/>
<path d="M519 113H541.64V194.56L582.64 150.78H610.14L570.86 191L611.45 249.56H585.23L555.49 206.91L541.65 221.31V249.56H519V113Z" fill="#1A1B1F"/>
<path d="M612.91 200.36V199.98C612.91 167.25 635.17 148.73 658.74 148.73C675.01 148.73 685.3 156.96 692.41 166.12V113H715.05V249.56H692.41V233.1C685.12 243.38 674.83 251.62 658.74 251.62C635.54 251.62 612.91 233.1 612.91 200.36ZM692.79 200.36V199.98C692.79 180.9 679.32 168.37 664.16 168.37C648.64 168.37 635.73 180.37 635.73 199.98V200.36C635.73 219.44 648.83 231.97 664.16 231.97C679.32 231.97 692.79 219.25 692.79 200.36Z" fill="#1A1B1F"/>
<path d="M799 249.56V237.43C792.27 245.43 782 251.65 767 251.65C748.29 251.65 731.83 240.98 731.83 221.15V220.78C731.83 198.89 748.83 188.42 771.83 188.42C781.099 188.259 790.329 189.648 799.14 192.53V190.63C799.14 176.97 790.54 169.49 774.82 169.49C763.82 169.49 755.55 171.92 746.57 175.67L740.4 157.52C751.25 152.66 761.91 149.29 778 149.29C807.19 149.29 821.4 164.63 821.4 191V249.56H799ZM799.57 208.22C792.319 205.567 784.651 204.236 776.93 204.29C762.71 204.29 754.29 210.09 754.29 219.63V220C754.29 229.35 762.71 234.59 773.38 234.59C788.38 234.59 799.57 226.17 799.57 213.83V208.22Z" fill="#1A1B1F"/>
<path d="M848.06 222.25V170.25H835.53V150.78H848.06V123.66H870.7V150.78H897.26V170.24H870.7V218.69C870.7 227.48 875.19 231.04 882.86 231.04C887.729 231.055 892.531 229.899 896.86 227.67V246.19C890.641 249.675 883.597 251.419 876.47 251.24C859.85 251.24 848.06 243.95 848.06 222.25Z" fill="#1A1B1F"/>
<path d="M977.29 249.56V237.43C970.55 245.43 960.29 251.65 945.29 251.65C926.58 251.65 910.12 240.98 910.12 221.15V220.78C910.12 198.89 927.12 188.42 950.12 188.42C959.389 188.259 968.619 189.648 977.43 192.53V190.63C977.43 176.97 968.83 169.49 953.12 169.49C942.12 169.49 933.85 171.92 924.87 175.67L918.69 157.52C929.54 152.66 940.21 149.29 956.3 149.29C985.48 149.29 999.7 164.63 999.7 191V249.56H977.29ZM977.85 208.22C970.599 205.566 962.931 204.235 955.21 204.29C941 204.29 932.58 210.09 932.58 219.63V220C932.58 229.35 941 234.59 951.66 234.59C966.66 234.59 977.85 226.17 977.85 213.83V208.22Z" fill="#1A1B1F"/>
<path fill-rule="evenodd" clip-rule="evenodd" d="M198.166 113.43H222.834H222.842C245.694 113.43 255.593 116.362 264.956 121.335C274.821 126.548 282.885 134.615 288.095 144.482C293.107 153.845 296 163.735 296 186.588V211.264C296 234.124 293.107 244.015 288.095 253.378C282.885 263.245 274.821 271.312 264.956 276.525C255.593 281.529 245.694 284.43 222.842 284.43H198.166C175.313 284.43 165.415 281.529 156.052 276.525C146.187 271.312 138.123 263.245 132.912 253.378C127.901 244.015 125 234.124 125 211.264V186.588C125 163.735 127.901 153.845 132.912 144.482C138.123 134.615 146.187 126.548 156.052 121.335C165.415 116.331 175.313 113.43 198.166 113.43ZM255.438 134.938C247.895 130.895 240.151 128.752 221.035 128.752H221.028H198.305C179.181 128.752 171.445 130.902 163.902 134.938C156.444 138.884 150.346 144.982 146.4 152.439C142.357 159.983 140.214 167.719 140.214 186.835V209.559C140.214 228.682 142.364 236.418 146.4 243.962C150.35 251.419 156.45 257.516 163.909 261.464C171.452 265.507 179.189 267.65 198.312 267.65H221.035C240.151 267.65 247.895 265.5 255.438 261.464C262.894 257.515 268.992 251.418 272.94 243.962C276.976 236.418 279.119 228.682 279.119 209.559V186.835C279.119 167.719 276.976 159.983 272.94 152.439C268.994 144.982 262.896 138.884 255.438 134.938Z" fill="#1A1B1F"/>
<path d="M220.97 130.453C239.422 130.453 246.897 132.535 254.178 136.463C261.377 140.297 267.263 146.222 271.072 153.468C274.968 160.797 277.036 168.314 277.036 186.887V208.966C277.036 227.546 274.968 235.062 271.072 242.392C267.261 249.636 261.375 255.56 254.178 259.396C246.897 263.318 239.422 265.407 220.97 265.407H199.036C180.578 265.407 173.11 263.325 165.829 259.396C158.629 255.561 152.741 249.637 148.928 242.392C145.032 235.062 142.957 227.546 142.957 208.966V186.887C142.957 168.314 145.026 160.797 148.928 153.468C152.737 146.222 158.624 140.297 165.822 136.463C173.103 132.542 180.571 130.453 199.03 130.453H220.964H220.97ZM220.964 121.43H199.036C178.723 121.43 169.925 124.026 161.602 128.502C152.833 133.167 145.665 140.385 141.033 149.213C136.579 157.591 134 166.44 134 186.887V208.966C134 229.42 136.579 238.269 141.033 246.646C145.665 255.475 152.833 262.693 161.602 267.357C169.925 271.834 178.723 274.43 199.036 274.43H220.97C241.284 274.43 250.082 271.834 258.405 267.357C267.174 262.693 274.342 255.475 278.974 246.646C283.428 238.269 286 229.42 286 208.966V186.887C286 166.44 283.428 157.591 278.974 149.213C274.342 140.385 267.174 133.167 258.405 128.502C250.082 124.054 241.284 121.43 220.97 121.43H220.964Z" fill="#1A1B1F"/>
<path fill-rule="evenodd" clip-rule="evenodd" d="M201.582 231.481V200.897H157.985L221.18 166.379V196.066H263.883L201.582 231.481Z" fill="#1A1B1F"/>
</svg>
